<?xml version="1.0" encoding="utf-8"?>
<!-- Generator: Adobe Illustrator 23.0.4, SVG Export Plug-In . SVG Version: 6.00 Build 0)  -->
<svg version="1.1" id="Ebene_1" xmlns="http://www.w3.org/2000/svg" xmlns:xlink="http://www.w3.org/1999/xlink" x="0px"
	y="0px" viewBox="0 0 464.3 79.9" style="enable-background:new 0 0 464.3 79.9;" xml:space="preserve">
	<style type="text/css">
		.st0 {
			fill: #FFFFFF;
		}
	</style>
	<g>
		<g>
			<path class="st0" d="M452.3,74.4c-0.9-0.3-1.6-0.9-2.2-1.5s-1.1-1.5-1.4-2.4s-0.5-2-0.5-3.2s0.2-2.2,0.5-3.2
			c0.3-0.9,0.8-1.7,1.4-2.4s1.4-1.2,2.3-1.5c0.9-0.4,1.9-0.5,3-0.5c0.8,0,1.5,0.1,2.1,0.2c0.6,0.2,1.1,0.3,1.4,0.5
			c0.4,0.2,0.7,0.4,0.9,0.5c0.2,0.2,0.4,0.3,0.5,0.3s0.1,0,0.2,0s0.2-0.1,0.3-0.2l0.3-0.5c-0.4-0.3-0.8-0.6-1.2-0.9
			c-0.4-0.2-0.8-0.5-1.3-0.6c-0.5-0.2-1-0.3-1.5-0.4c-0.5-0.1-1.1-0.1-1.8-0.1c-1.3,0-2.5,0.2-3.5,0.6c-1,0.4-1.9,1-2.7,1.7
			c-0.7,0.8-1.3,1.7-1.7,2.7c-0.4,1.1-0.6,2.2-0.6,3.5s0.2,2.5,0.6,3.5c0.4,1.1,1,2,1.7,2.7c0.7,0.8,1.6,1.3,2.6,1.7
			c1,0.4,2.1,0.6,3.3,0.6c0.7,0,1.4,0,2-0.1s1.2-0.2,1.7-0.4s1-0.3,1.5-0.6c0.5-0.2,0.9-0.5,1.3-0.8v-6h-4.7v0.7
			c0,0.1,0,0.1,0.1,0.2s0.1,0.1,0.2,0.1h3.2v4.5c-0.4,0.2-0.7,0.4-1.1,0.6s-0.8,0.3-1.2,0.4c-0.4,0.1-0.9,0.2-1.3,0.3
			c-0.5,0.1-1,0.1-1.6,0.1C454.1,74.9,453.1,74.7,452.3,74.4 M427.7,58.9h-0.6v16.8h1.1V61.5c0-0.2,0-0.4,0-0.7l11,14.6
			c0.1,0.2,0.3,0.2,0.4,0.2h0.6V58.9H439V73c0,0.2,0,0.5,0,0.7l-10.9-14.6c-0.1-0.1-0.1-0.2-0.2-0.2
			C427.9,58.9,427.8,58.9,427.7,58.9 M413.8,61.1c0.1-0.1,0.1-0.3,0.2-0.5s0.1-0.4,0.2-0.5c0.1,0.2,0.1,0.4,0.2,0.5
			c0.1,0.2,0.1,0.3,0.2,0.5l3.4,8.5h-7.5L413.8,61.1z M414.7,58.9h-1.2l-6.9,16.8h0.9c0.1,0,0.2,0,0.3-0.1c0.1-0.1,0.1-0.1,0.2-0.2
			l2-4.9h8.3l2,4.9c0,0.1,0.1,0.2,0.2,0.2c0.1,0.1,0.2,0.1,0.3,0.1h0.9L414.7,58.9z M388.7,58.9h-0.6v16.8h1.1V61.5
			c0-0.2,0-0.4,0-0.7l11,14.6c0.1,0.2,0.3,0.2,0.4,0.2h0.6V58.9h-1.1V73c0,0.2,0,0.5,0,0.7l-10.9-14.6c-0.1-0.1-0.1-0.2-0.2-0.2
			C388.9,58.9,388.8,58.9,388.7,58.9 M371.2,58.8H370v16.9h1.2v-8.1h1.1c0.2,0,0.3,0,0.5,0c0.1,0,0.2,0.1,0.3,0.1
			c0.1,0,0.2,0.1,0.2,0.2c0.1,0.1,0.2,0.1,0.2,0.2l7.1,7.3c0.1,0.1,0.2,0.2,0.3,0.2c0.1,0.1,0.2,0.1,0.4,0.1h1l-7.8-8.1
			c-0.1-0.2-0.3-0.3-0.4-0.4S374,67,373.8,67c0.1-0.1,0.3-0.1,0.4-0.2s0.2-0.2,0.4-0.4l7.4-7.6h-1c-0.2,0-0.3,0-0.4,0.1
			s-0.2,0.1-0.4,0.3l-6.8,7c-0.1,0.1-0.2,0.2-0.2,0.2c-0.1,0.1-0.2,0.1-0.3,0.1c-0.1,0-0.2,0.1-0.3,0.1c-0.1,0-0.2,0-0.4,0h-1V58.8z
			 M362.2,72.9c0,0-0.1,0-0.1,0.1c-0.3,0.3-0.7,0.6-1,0.8c-0.3,0.2-0.7,0.4-1.1,0.6s-0.8,0.3-1.3,0.4s-1,0.1-1.6,0.1
			c-1,0-1.9-0.2-2.7-0.5c-0.8-0.3-1.5-0.8-2.1-1.5c-0.6-0.6-1.1-1.4-1.4-2.4c-0.3-0.9-0.5-2-0.5-3.2s0.2-2.2,0.5-3.1
			s0.8-1.7,1.4-2.4s1.4-1.2,2.2-1.5c0.9-0.4,1.8-0.5,2.8-0.5c0.6,0,1.1,0,1.5,0.1s0.8,0.2,1.2,0.3c0.3,0.1,0.6,0.3,0.9,0.4
			c0.2,0.1,0.4,0.3,0.6,0.4c0.2,0.1,0.3,0.2,0.4,0.3s0.2,0.1,0.3,0.1c0.1,0,0.2,0,0.3-0.1l0.4-0.5c-0.4-0.3-0.8-0.6-1.1-0.9
			c-0.4-0.3-0.8-0.5-1.2-0.6c-0.4-0.2-0.9-0.3-1.4-0.4s-1.1-0.1-1.7-0.1c-1.2,0-2.3,0.2-3.4,0.6s-1.9,1-2.6,1.8s-1.3,1.7-1.7,2.7
			c-0.4,1.1-0.6,2.2-0.6,3.5s0.2,2.5,0.6,3.5c0.4,1.1,0.9,2,1.6,2.7c0.7,0.8,1.5,1.3,2.5,1.7c1,0.4,2,0.6,3.2,0.6
			c0.7,0,1.3-0.1,1.9-0.2s1.1-0.3,1.6-0.5s0.9-0.5,1.4-0.8c0.4-0.3,0.8-0.6,1.1-1l-0.5-0.5c-0.1-0.1-0.1-0.1-0.2-0.1
			C362.3,72.9,362.2,72.9,362.2,72.9 M337.1,61.1c0.1-0.1,0.1-0.3,0.2-0.5s0.1-0.4,0.2-0.5c0.1,0.2,0.1,0.4,0.2,0.5
			c0.1,0.2,0.1,0.3,0.2,0.5l3.4,8.5h-7.6L337.1,61.1z M338.1,58.9h-1.2L330,75.7h0.9c0.1,0,0.2,0,0.3-0.1c0.1-0.1,0.1-0.1,0.2-0.2
			l2-4.9h8.3l2,4.9c0,0.1,0.1,0.2,0.2,0.2c0.1,0.1,0.2,0.1,0.3,0.1h0.9L338.1,58.9z M315.5,59.8h3.6c1.5,0,2.6,0.3,3.3,0.9
			c0.7,0.6,1.1,1.4,1.1,2.6c0,0.4-0.1,0.9-0.2,1.3c-0.2,0.4-0.4,0.8-0.8,1.1c-0.4,0.3-0.8,0.6-1.4,0.8c-0.6,0.2-1.2,0.3-2,0.3h-3.7
			v-7H315.5z M319.7,67.6c0.7,0,1.3,0.1,1.9,0.2c0.6,0.2,1,0.4,1.4,0.7c0.4,0.3,0.7,0.7,0.9,1.1c0.2,0.4,0.3,0.9,0.3,1.4
			c0,1.2-0.4,2.1-1.1,2.7s-1.9,1-3.4,1h-4.2v-7.1C315.5,67.6,319.7,67.6,319.7,67.6z M319.7,75.7c0.9,0,1.7-0.1,2.4-0.3
			c0.7-0.2,1.3-0.5,1.8-0.9s0.9-0.9,1.1-1.5c0.3-0.6,0.4-1.2,0.4-1.9c0-1.1-0.4-2-1.1-2.7s-1.7-1.1-3.1-1.3c0.5-0.1,1-0.3,1.5-0.6
			c0.4-0.3,0.8-0.6,1.1-0.9s0.5-0.7,0.7-1.1s0.2-0.8,0.2-1.3c0-0.7-0.1-1.3-0.3-1.8c-0.2-0.5-0.6-1-1-1.4c-0.5-0.4-1-0.6-1.7-0.8
			s-1.5-0.3-2.5-0.3h-4.8v16.8H319.7z" />
		</g>
		<g>
			<path class="st0" d="M451.9,45.7L446,35.2c-0.1-0.2-0.2-0.3-0.3-0.3c-0.1,0-0.3-0.1-0.5-0.1h-1.7v17.1h2V39.3c0-0.2,0-0.3,0-0.5
			s0-0.4-0.1-0.6l6,10.7c0.2,0.4,0.5,0.5,0.8,0.5h0.3c0.4,0,0.6-0.2,0.8-0.5l5.8-10.7c0,0.2,0,0.4,0,0.6c0,0.2,0,0.4,0,0.5v12.5h2
			v-17h-1.7c-0.2,0-0.4,0-0.5,0.1c-0.1,0-0.2,0.2-0.3,0.3L453,45.6c-0.1,0.2-0.2,0.4-0.3,0.6c-0.1,0.2-0.2,0.4-0.2,0.6
			c-0.1-0.2-0.2-0.4-0.2-0.6C452.1,46.1,452,45.9,451.9,45.7 M430.4,49.6c-0.6-0.2-1-0.6-1.4-1s-0.7-0.9-0.9-1.5
			c-0.2-0.6-0.3-1.2-0.3-2V34.8h-2.3v10.4c0,1,0.2,1.9,0.5,2.7s0.8,1.6,1.4,2.2c0.6,0.6,1.3,1.1,2.1,1.4c0.8,0.3,1.8,0.5,2.8,0.5
			s2-0.2,2.8-0.5s1.6-0.8,2.1-1.4c0.6-0.6,1-1.3,1.3-2.2c0.3-0.8,0.5-1.8,0.5-2.7V34.8h-2.3v10.4c0,0.7-0.1,1.4-0.3,2
			c-0.2,0.6-0.5,1.1-0.9,1.5s-0.9,0.8-1.4,1c-0.6,0.2-1.2,0.4-1.9,0.4C431.6,50,431,49.9,430.4,49.6 M420.6,34.8h-2.3v17.1h2.3V34.8
			z M414.1,36.3c-0.6-0.6-1.3-1-2.1-1.3c-0.8-0.3-1.7-0.5-2.6-0.5c-0.8,0-1.6,0.1-2.3,0.4s-1.2,0.6-1.6,1s-0.8,0.9-1,1.5
			s-0.4,1.1-0.4,1.8c0,0.8,0.1,1.4,0.4,1.9c0.2,0.5,0.5,0.9,0.9,1.3c0.4,0.3,0.8,0.6,1.3,0.8s1,0.4,1.5,0.6c0.5,0.2,1,0.3,1.5,0.5
			s0.9,0.3,1.3,0.6c0.4,0.2,0.7,0.5,0.9,0.8c0.2,0.3,0.4,0.8,0.4,1.3s-0.1,0.9-0.2,1.3c-0.2,0.4-0.4,0.7-0.7,1
			c-0.3,0.3-0.7,0.5-1.1,0.6c-0.4,0.2-0.9,0.2-1.5,0.2c-0.7,0-1.2-0.1-1.7-0.3s-0.8-0.4-1.2-0.6c-0.3-0.2-0.6-0.4-0.8-0.6
			c-0.2-0.2-0.4-0.3-0.6-0.3c-0.1,0-0.2,0-0.3,0.1c-0.1,0.1-0.2,0.1-0.2,0.2l-0.7,1.1c0.6,0.7,1.4,1.2,2.3,1.6
			c0.9,0.4,1.9,0.6,3,0.6c0.9,0,1.7-0.1,2.4-0.4c0.7-0.3,1.3-0.7,1.8-1.1c0.5-0.5,0.9-1.1,1.1-1.7s0.4-1.4,0.4-2.1
			c0-0.7-0.1-1.3-0.4-1.8c-0.2-0.5-0.5-0.9-0.9-1.2s-0.8-0.6-1.3-0.8s-1-0.4-1.5-0.6c-0.5-0.2-1-0.3-1.5-0.5s-0.9-0.4-1.3-0.6
			c-0.4-0.2-0.7-0.5-0.9-0.8c-0.2-0.3-0.4-0.7-0.4-1.2c0-0.4,0.1-0.7,0.2-1s0.3-0.6,0.6-0.8c0.3-0.2,0.6-0.4,1-0.6s0.9-0.2,1.4-0.2
			s1,0.1,1.4,0.2c0.4,0.1,0.7,0.3,1,0.4c0.3,0.2,0.5,0.3,0.7,0.4c0.2,0.1,0.3,0.2,0.5,0.2c0.1,0,0.2,0,0.3-0.1
			c0.1-0.1,0.2-0.1,0.2-0.3L414.1,36.3z M393.6,38.6c0.1-0.2,0.2-0.4,0.2-0.7c0.1-0.3,0.2-0.6,0.3-0.9c0.2,0.6,0.3,1.2,0.5,1.6
			l2.7,6.9H391L393.6,38.6z M395.3,34.8H393l-6.8,17.1h1.8c0.2,0,0.4-0.1,0.5-0.2c0.1-0.1,0.2-0.2,0.3-0.4l1.6-4.1h7.7l1.6,4.1
			c0.1,0.2,0.2,0.3,0.3,0.4c0.1,0.1,0.3,0.2,0.5,0.2h1.8L395.3,34.8z M370.8,34.8h-1.2v17.1h2V39.7c0-0.2,0-0.3,0-0.5s0-0.4,0-0.6
			l9.9,12.8c0.1,0.2,0.2,0.3,0.4,0.3c0.1,0.1,0.3,0.1,0.5,0.1h1.2v-17h-2v12.1c0,0.2,0,0.4,0,0.6c0,0.2,0,0.4,0,0.6l-9.9-12.9
			c-0.1-0.2-0.2-0.3-0.3-0.3C371.2,34.8,371,34.8,370.8,34.8 M355.6,45.7l-5.9-10.5c-0.1-0.2-0.2-0.3-0.3-0.3
			c-0.1,0-0.3-0.1-0.5-0.1h-1.7v17.1h2V39.3c0-0.2,0-0.3,0-0.5s0-0.4-0.1-0.6l6,10.7c0.2,0.4,0.5,0.5,0.8,0.5h0.3
			c0.4,0,0.6-0.2,0.8-0.5l5.8-10.7c0,0.2,0,0.4,0,0.6c0,0.2,0,0.4,0,0.5v12.5h2v-17h-1.7c-0.2,0-0.4,0-0.5,0.1
			c-0.1,0-0.2,0.2-0.3,0.3l-5.8,10.5c-0.1,0.2-0.2,0.4-0.3,0.6c-0.1,0.2-0.2,0.4-0.2,0.6c-0.1-0.2-0.2-0.4-0.2-0.6
			C355.8,46.1,355.7,45.9,355.6,45.7 M344.6,34.8h-2c-0.2,0-0.4,0.1-0.5,0.2c-0.1,0.1-0.2,0.2-0.3,0.4l-3.9,6.6
			c-0.2,0.3-0.3,0.5-0.4,0.8c-0.1,0.2-0.2,0.5-0.3,0.7c-0.1-0.2-0.2-0.5-0.3-0.7c-0.1-0.2-0.2-0.5-0.4-0.8l-3.9-6.6
			c-0.1-0.2-0.2-0.3-0.3-0.4s-0.3-0.2-0.5-0.2h-2L336,45v6.8h2.3V45L344.6,34.8z M318.9,49.7c-0.8-0.3-1.4-0.8-2-1.3
			c-0.6-0.6-1-1.3-1.3-2.1s-0.5-1.8-0.5-2.9c0-1,0.1-2,0.4-2.8s0.7-1.5,1.3-2.1s1.2-1,2-1.3s1.6-0.5,2.6-0.5c0.7,0,1.2,0.1,1.7,0.2
			c0.5,0.1,0.9,0.2,1.2,0.4s0.7,0.3,0.9,0.5c0.2,0.2,0.5,0.3,0.7,0.4c0.1,0.1,0.3,0.1,0.4,0.1c0.2,0,0.4-0.1,0.5-0.3l0.7-1
			c-0.4-0.3-0.8-0.6-1.2-0.9c-0.4-0.3-0.9-0.5-1.4-0.7s-1-0.3-1.6-0.4c-0.6-0.1-1.2-0.1-1.9-0.1c-1.3,0-2.5,0.2-3.6,0.6
			c-1.1,0.4-2,1-2.8,1.8s-1.3,1.7-1.8,2.8c-0.4,1.1-0.6,2.3-0.6,3.6s0.2,2.5,0.6,3.5c0.4,1.1,1,2,1.7,2.8s1.6,1.4,2.7,1.8
			c1,0.4,2.2,0.6,3.4,0.6c0.7,0,1.4,0,2-0.1s1.2-0.2,1.7-0.3c0.5-0.2,1-0.3,1.5-0.6c0.5-0.2,0.9-0.5,1.3-0.8v-6.5h-5.2v1.3
			c0,0.1,0,0.2,0.1,0.3s0.2,0.1,0.4,0.1h2.6v3.8c-0.3,0.2-0.6,0.3-0.9,0.4c-0.3,0.1-0.6,0.2-1,0.3c-0.3,0.1-0.7,0.2-1.1,0.2
			s-0.8,0.1-1.3,0.1C320.5,50.1,319.7,50,318.9,49.7" />
		</g>
		<g>
			<path class="st0" d="M447,8.6h-1.9V28h3.2V16.1c0-0.2,0-0.5,0-0.8s0-0.6-0.1-0.9l10.1,12.9c0.2,0.2,0.4,0.4,0.5,0.5
			c0.2,0.1,0.4,0.1,0.7,0.1h1.9V8.6h-3.2v11.8c0,0.3,0,0.5,0,0.8s0,0.6,0.1,0.9l-10.2-13c-0.1-0.1-0.2-0.2-0.3-0.3
			c-0.1-0.1-0.2-0.1-0.2-0.2s-0.2-0.1-0.3-0.1C447.3,8.6,447.1,8.6,447,8.6 M430.6,11.4h2.3c1.3,0,2.3,0.3,3,0.8
			c0.6,0.5,1,1.3,1,2.3c0,0.5-0.1,0.9-0.2,1.4c-0.2,0.4-0.4,0.8-0.7,1.1s-0.7,0.5-1.2,0.7S433.7,18,433,18h-2.2v-6.6H430.6z
			 M432.1,20.4c0.4,0,0.6,0,0.8,0.1c0.2,0.1,0.4,0.3,0.5,0.5l4.1,6.2c0.2,0.2,0.3,0.4,0.6,0.5s0.5,0.2,0.8,0.2h3.2l-4.8-7.2
			c-0.3-0.5-0.7-0.9-1.2-1.1c0.7-0.2,1.3-0.5,1.8-0.9s1-0.8,1.3-1.2c0.4-0.5,0.6-1,0.8-1.6c0.2-0.6,0.3-1.2,0.3-1.8
			c0-0.8-0.1-1.6-0.4-2.3s-0.7-1.3-1.3-1.8c-0.6-0.5-1.4-0.9-2.3-1.1c-0.9-0.3-2.1-0.4-3.4-0.4H427V28h3.6v-7.6H432.1z M419.2,21.1
			c-0.3,0.8-0.7,1.6-1.2,2.1c-0.5,0.6-1.2,1-1.9,1.3c-0.8,0.3-1.6,0.5-2.6,0.5c-0.9,0-1.8-0.2-2.6-0.5c-0.8-0.3-1.4-0.8-1.9-1.3
			c-0.5-0.6-0.9-1.3-1.2-2.1c-0.3-0.8-0.4-1.8-0.4-2.9s0.1-2,0.4-2.9c0.3-0.8,0.7-1.6,1.2-2.1c0.5-0.6,1.2-1,1.9-1.4
			c0.8-0.3,1.6-0.5,2.6-0.5c0.9,0,1.8,0.2,2.6,0.5c0.8,0.3,1.4,0.8,1.9,1.4c0.5,0.6,0.9,1.3,1.2,2.1c0.3,0.8,0.4,1.8,0.4,2.9
			C419.7,19.3,419.5,20.3,419.2,21.1 M422.6,14.3c-0.5-1.2-1.1-2.3-2-3.1c-0.9-0.9-1.9-1.6-3.1-2.1s-2.5-0.8-4-0.8s-2.8,0.2-4,0.7
			s-2.2,1.2-3.1,2.1c-0.9,0.9-1.5,1.9-2,3.1s-0.7,2.5-0.7,3.9s0.2,2.7,0.7,3.9c0.5,1.2,1.1,2.3,2,3.1c0.9,0.9,1.9,1.6,3.1,2.1
			s2.5,0.7,4,0.7s2.8-0.2,4-0.7s2.2-1.2,3.1-2.1s1.5-1.9,2-3.1s0.7-2.5,0.7-3.9C423.4,16.9,423.1,15.5,422.6,14.3 M390.3,11.4h3.1
			c1.2,0,2.1,0.2,2.7,0.6c0.6,0.4,0.9,1.1,0.9,2.2c0,1-0.3,1.7-1,2.1c-0.6,0.4-1.6,0.7-2.8,0.7h-2.9L390.3,11.4L390.3,11.4z
			 M393.9,19.5c0.6,0,1.2,0.1,1.6,0.2s0.8,0.3,1.1,0.5c0.3,0.2,0.5,0.5,0.6,0.9c0.1,0.3,0.2,0.7,0.2,1.1s-0.1,0.8-0.2,1.1
			c-0.1,0.4-0.3,0.7-0.6,0.9c-0.3,0.3-0.6,0.5-1.1,0.6s-1,0.2-1.7,0.2h-3.7v-5.7h3.8V19.5z M394,28c1.1,0,2.1-0.1,3-0.4
			s1.6-0.7,2.2-1.2s1.1-1.1,1.4-1.8c0.3-0.7,0.5-1.5,0.5-2.3c0-2.3-1.3-3.7-4-4.3c0.6-0.2,1.1-0.5,1.5-0.8s0.8-0.6,1.1-1
			c0.3-0.4,0.5-0.7,0.6-1.2c0.1-0.4,0.2-0.9,0.2-1.3c0-0.8-0.1-1.5-0.4-2.1s-0.7-1.2-1.3-1.6c-0.6-0.4-1.3-0.8-2.2-1
			c-0.9-0.2-2-0.4-3.2-0.4h-6.7V28H394z M357.5,28h3.4c0.2,0,0.4-0.1,0.5-0.2s0.3-0.3,0.4-0.4l4.3-6.9c0-0.1,0.1-0.2,0.1-0.3
			c0-0.1,0.1-0.2,0.1-0.3l4.5,7.4c0.1,0.2,0.2,0.3,0.4,0.4c0.1,0.1,0.3,0.2,0.6,0.2h3.6L369,17.8l6.2-9.3h-3.5
			c-0.3,0-0.6,0.2-0.8,0.5l-4,6.4c-0.1,0.1-0.1,0.2-0.2,0.3s-0.1,0.2-0.1,0.3l-4.4-7c-0.1-0.2-0.2-0.3-0.3-0.3s-0.3-0.1-0.5-0.1
			h-3.6L364,18L357.5,28z M346.5,14.2c0.1-0.3,0.2-0.6,0.4-1c0.1-0.4,0.2-0.8,0.4-1.3c0.1,0.5,0.3,0.9,0.4,1.3
			c0.1,0.4,0.2,0.7,0.4,1l2.4,6.4h-6.2L346.5,14.2z M349.1,8.6h-3.7L337.8,28h2.8c0.3,0,0.6-0.1,0.8-0.3c0.2-0.2,0.4-0.4,0.4-0.6
			l1.4-4h8l1.4,4c0.1,0.2,0.2,0.4,0.4,0.6c0.2,0.2,0.5,0.2,0.8,0.2h2.8L349.1,8.6z M323.8,19.9L318,9.2c-0.1-0.1-0.1-0.2-0.2-0.3
			s-0.2-0.1-0.3-0.2c-0.1,0-0.2-0.1-0.3-0.1s-0.3,0-0.4,0h-2.7V28h3.2V15.4c0-0.2,0-0.5,0-0.8s0-0.6-0.1-0.9l5.9,11
			c0.1,0.2,0.3,0.4,0.5,0.6c0.2,0.1,0.5,0.2,0.8,0.2h0.5c0.3,0,0.5-0.1,0.8-0.2c0.2-0.1,0.4-0.3,0.5-0.6l5.9-11c0,0.3,0,0.6-0.1,0.8
			c0,0.3,0,0.5,0,0.8V28h3.2V8.6h-2.7c-0.2,0-0.3,0-0.4,0s-0.2,0-0.3,0.1c-0.1,0-0.2,0.1-0.3,0.2c-0.1,0.1-0.1,0.2-0.2,0.3
			l-5.7,10.7c-0.2,0.3-0.3,0.6-0.4,0.9s-0.3,0.6-0.4,1c-0.1-0.3-0.3-0.6-0.4-0.9C324.1,20.5,323.9,20.2,323.8,19.9" />
		</g>
	</g>
	<path class="st0" d="M5,61.7h63v13.2H5V61.7z M68.8,61.7h75.6v13.2H68.8V61.7z M145.2,61.7h13.4v13.2h-13.4V61.7z M159.4,61.7h8.9
	v13.2h-8.9V61.7z M169,61.7h93.4v13.2H169V61.7z M263.2,61.7h8.9v13.2h-8.9V61.7z M272.9,61.7h13.3v13.2h-13.3V61.7z M5,49.1h63
	v11.8H5V49.1z M159.4,48.3h8.9v12.6h-8.9V48.3z M169,48.3h93.4v12.6H169V48.3z M263.2,48.3h8.9v12.6h-8.9V48.3z M272.9,48.3h13.3
	v12.6h-13.3V48.3z M159.4,35.1h8.9v12.3h-8.9V35.1z M169,35.1h93.4v12.3H169V35.1z M263.2,35.1h8.9v12.3h-8.9V35.1z M272.9,35.1
	h13.3v12.3h-13.3V35.1z M145.2,22.7h13.4v38.1h-13.4V22.7z M169,22.7h93.4v11.6H169V22.7z M272.9,22.7h13.3v11.6h-13.3V22.7z
	 M159.4,22.7L159.4,22.7h8.9l0,0v11.6h-8.9V22.7z M263.2,22.7L263.2,22.7h8.9l0,0v11.6h-8.9V22.7z M222.5,10.4h34.7v9.8h-34.7
	L222.5,10.4L222.5,10.4z M221.7,8.6v1.5v0.3v9.8H169h-0.8v1.7h-8.9v-1.7h-0.8h-13.4h-0.8v2.5v38.1H68.8V49.1v-2.3v-0.2H5H4.2v2.5
	v25.8H2v0.8h287.1v-0.8H287V22.7v-2.5h-0.8h-13.3h-0.8v1.7h-8.9v-1.7h-0.8H258v-9.8v-0.3V8.6H221.7z" />
</svg>